<svg xmlns="http://www.w3.org/2000/svg" viewBox="0 0 24 24" fill="none">
  <!-- Palette outline -->
  <path
    d="M12 3c-5.1 0-9 3.7-9 8.5C3 16.3 6.7 21 11.9 21h1.1c1.7 0 2.6-1 2.6-2.2
       0-.7-.3-1.2-.7-1.7-.3-.4-.5-.7-.5-1.1 0-.8.7-1.5 1.7-1.5h1.7
       C21 14.5 21 12.9 21 11.5 21 6.7 17.1 3 12 3Z"
    stroke="currentColor"
    stroke-width="1.8"
    stroke-linejoin="round"
  />
  <!-- Paint wells -->
  <circle cx="8.2" cy="10.2" r="1.1" fill="currentColor"/>
  <circle cx="11.2" cy="8.2" r="1.1" fill="currentColor"/>
  <circle cx="14.6" cy="9.2" r="1.1" fill="currentColor"/>
  <circle cx="8.9" cy="13.4" r="1.1" fill="currentColor"/>
</svg>